<?xml version="1.0" encoding="utf-8"?>
<!-- Generator: Adobe Illustrator 21.0.2, SVG Export Plug-In . SVG Version: 6.00 Build 0)  -->
<svg version="1.1" id="Layer_1" xmlns="http://www.w3.org/2000/svg" xmlns:xlink="http://www.w3.org/1999/xlink" x="0px" y="0px"
	 viewBox="0 0 470 142.7" style="enable-background:new 0 0 470 142.7;" xml:space="preserve">
<style type="text/css">
	.st0{fill:#46A6DD;}
	.st1{fill:none;}
	.st2{font-family:'CourierNewPSMT';}
	.st3{font-size:69px;}
</style>
<g id="Page-1">
	<g id="Group">
		<path id="Path" class="st0" d="M82.6,65.9c0.7,1.6,2.3,2.7,4.1,2.7h9.5c2.4,0,4.4-2,4.4-4.4s-2-4.4-4.4-4.4h-6.6L71.5,18.3
			c-1.7-3.8-7.2-3.4-8.3,0.6l-20,71.4H20.7c-2.4,0-4.4,2-4.4,4.4s2,4.4,4.4,4.4h25.8c2,0,3.7-1.3,4.3-3.2l17.6-62.6L82.6,65.9z"/>
		<path id="Path-2" class="st0" d="M65.3,83.1v40.2c0,2.4,2,4.4,4.4,4.4s4.4-2,4.4-4.4V83.1c0-2.4-2-4.4-4.4-4.4
			S65.3,80.6,65.3,83.1z"/>
	</g>
</g>
<rect x="83" y="83.8" class="st1" width="375.1" height="44.1"/>
<text transform="matrix(1 0 0 1 83.0142 126.0475)" class="st0 st2 st3">treeRoute</text>
</svg>
