<?xml version="1.0" encoding="utf-8"?>
<!-- Generator: Adobe Illustrator 21.0.2, SVG Export Plug-In . SVG Version: 6.00 Build 0)  -->
<svg version="1.1" id="Layer_1" xmlns="http://www.w3.org/2000/svg" xmlns:xlink="http://www.w3.org/1999/xlink" x="0px" y="0px"
	 viewBox="0 0 103.3 131.5" style="enable-background:new 0 0 103.3 131.5;" xml:space="preserve">
<style type="text/css">
	.st0{fill:#46A6DD;}
</style>
<g id="Page-1">
	<g id="Group">
		<path id="Path" class="st0" d="M76.9,59.8c0.7,1.6,2.3,2.7,4.1,2.7h9.5c2.4,0,4.4-2,4.4-4.4s-2-4.4-4.4-4.4h-6.6L65.8,12.2
			c-1.7-3.8-7.2-3.4-8.3,0.6l-20,71.4H15.1c-2.4,0-4.4,2-4.4,4.4c0,2.4,2,4.4,4.4,4.4h25.8c2,0,3.7-1.3,4.3-3.2l17.6-62.6L76.9,59.8
			z"/>
		<path id="Path-2" class="st0" d="M59.6,77v40.2c0,2.4,2,4.4,4.4,4.4c2.4,0,4.4-2,4.4-4.4V77c0-2.4-2-4.4-4.4-4.4
			C61.6,72.5,59.6,74.5,59.6,77z"/>
	</g>
</g>
</svg>
